<mxfile host="app.diagrams.net" agent="Mozilla/5.0 (Macintosh; Intel Mac OS X 10_15_7) AppleWebKit/605.1.15 (KHTML, like Gecko) Version/16.6.1 Safari/605.1.15" version="24.7.7">
  <diagram name="Page-1" id="tVbHunp7hED7-8JpQfON">
    <mxGraphModel dx="502" dy="787" grid="1" gridSize="10" guides="1" tooltips="1" connect="1" arrows="1" fold="1" page="1" pageScale="1" pageWidth="827" pageHeight="1169" math="0" shadow="0">
      <root>
        <mxCell id="0" />
        <mxCell id="1" parent="0" />
        <mxCell id="87mjvE1WeWrNGsHYavME-63" value="" style="rounded=0;whiteSpace=wrap;html=1;" vertex="1" parent="1">
          <mxGeometry x="880" y="600" width="870" height="360" as="geometry" />
        </mxCell>
        <mxCell id="fQq0N2yNLMsldZwKydO9-7" value="&lt;h2&gt;&lt;span style=&quot;font-weight: normal;&quot;&gt;&lt;font color=&quot;#ffffff&quot; data-font-src=&quot;https://fonts.googleapis.com/css?family=inter&quot;&gt;&amp;nbsp; &amp;nbsp; &amp;nbsp; &amp;nbsp;HDB (Historical Database)&lt;/font&gt;&lt;/span&gt;&lt;/h2&gt;" style="html=1;whiteSpace=wrap;fillColor=#003CFF;strokeColor=none;rounded=1;glass=0;shadow=0;fontFamily=Inter;fontStyle=0;textShadow=0;align=left;fontSource=https%3A%2F%2Ffonts.googleapis.com%2Fcss%3Ffamily%3DInter;" parent="1" vertex="1">
          <mxGeometry x="1380" y="632.63" width="320" height="70.75" as="geometry" />
        </mxCell>
        <mxCell id="kFcGDZtLzXrvjYt8p7Rm-3" value="&lt;h2&gt;&lt;font color=&quot;#101820&quot;&gt;&lt;span style=&quot;font-weight: 400;&quot;&gt;kdb+&lt;/span&gt;&lt;/font&gt;&lt;/h2&gt;" style="html=1;whiteSpace=wrap;fillColor=#FFC300;rounded=1;glass=0;shadow=0;fontFamily=Inter;fontStyle=0;strokeWidth=2;strokeColor=#FFC300;fontSource=https%3A%2F%2Ffonts.googleapis.com%2Fcss%3Ffamily%3DInter;" parent="1" vertex="1">
          <mxGeometry x="1647" y="643.01" width="85" height="50" as="geometry" />
        </mxCell>
        <mxCell id="87mjvE1WeWrNGsHYavME-43" value="" style="shape=image;verticalLabelPosition=bottom;labelBackgroundColor=default;verticalAlign=top;aspect=fixed;imageAspect=0;image=data:image/svg+xml,PHN2ZyB4bWxuczp4bGluaz0iaHR0cDovL3d3dy53My5vcmcvMTk5OS94bGluayIgeG1sbnM9Imh0dHA6Ly93d3cudzMub3JnLzIwMDAvc3ZnIiB4bWw6c3BhY2U9InByZXNlcnZlIiBzdHlsZT0iZW5hYmxlLWJhY2tncm91bmQ6bmV3IDAgMCAxMDAgMTAwOyIgdmlld0JveD0iMCAwIDEwMCAxMDAiIHk9IjBweCIgeD0iMHB4IiBpZD0iRGF0YWJhc2VfU2VydmVyXy1fQ09NUE9VTkQiIHZlcnNpb249IjEuMSI+JiN4YTs8c3R5bGUgdHlwZT0idGV4dC9jc3MiPiYjeGE7CS5zdDB7ZmlsbDojRkZDMzAwO30mI3hhOwkuc3Qxe2Rpc3BsYXk6bm9uZTt9JiN4YTsJLnN0MntkaXNwbGF5OmlubGluZTtmaWxsOiMxODFDMUY7fSYjeGE7PC9zdHlsZT4mI3hhOzxnIGlkPSJGSUxMXy1fQyI+JiN4YTsJPHBhdGggZD0iTTIwLDg3aDYwVjY0LjNIMjBWODd6IE03My4yLDc2LjRjMi4xLDAsMy44LDEuNywzLjgsMy44Uzc1LjMsODQsNzMuMiw4NHMtMy44LTEuNy0zLjgtMy44JiMxMDsmIzk7JiM5O1M3MS4xLDc2LjQsNzMuMiw3Ni40eiIgY2xhc3M9InN0MCIvPiYjeGE7CTxwYXRoIGQ9Ik0yMCw2MS4zTDIwLDYxLjNoNjBsMCwwVjM4LjdIMjBWNjEuM0wyMCw2MS4zeiBNNzMuMiw1MC43YzIuMSwwLDMuOCwxLjcsMy44LDMuOHMtMS43LDMuOC0zLjgsMy44JiMxMDsmIzk7JiM5O3MtMy44LTEuNy0zLjgtMy44UzcxLjEsNTAuNyw3My4yLDUwLjd6IiBjbGFzcz0ic3QwIi8+JiN4YTsJPHBhdGggZD0iTTIwLDEzdjIyLjdsMCwwaDYwbDAsMFYxM0gyMHogTTczLjIsMjUuMWMyLjEsMCwzLjgsMS43LDMuOCwzLjhzLTEuNywzLjgtMy44LDMuOHMtMy44LTEuNy0zLjgtMy44JiMxMDsmIzk7JiM5O1M3MS4xLDI1LjEsNzMuMiwyNS4xeiIgY2xhc3M9InN0MCIvPiYjeGE7PC9nPiYjeGE7PGcgY2xhc3M9InN0MSIgaWQ9IlNUUk9LRV8tX0JXIj4mI3hhOwk8Y2lyY2xlIHI9IjMuOCIgY3k9IjgwLjIiIGN4PSI3My4yIiBjbGFzcz0ic3QyIi8+JiN4YTsJPHBhdGggZD0iTTczLjIsNTguM2MyLjEsMCwzLjgtMS43LDMuOC0zLjhzLTEuNy0zLjgtMy44LTMuOHMtMy44LDEuNy0zLjgsMy44UzcxLjEsNTguMyw3My4yLDU4LjN6IiBjbGFzcz0ic3QyIi8+JiN4YTsJPHBhdGggZD0iTTgxLjUsMTBoLTYzTDE3LDExLjV2NzdsMS41LDEuNWg2M2wxLjUtMS41di03N0M4MywxMS41LDgxLjUsMTAsODEuNSwxMHogTTgwLDg3SDIwVjY0LjNoNjAmIzEwOyYjOTsmIzk7QzgwLDY0LjMsODAsODcsODAsODd6IE04MCwzOC43djIyLjdsMCwwSDIwbDAsMFYzOC43TDgwLDM4LjdMODAsMzguN3ogTTgwLDM1LjdMODAsMzUuN0gyMGwwLDBWMTNoNjBWMzUuN3oiIGNsYXNzPSJzdDIiLz4mI3hhOwk8Y2lyY2xlIHI9IjMuOCIgY3k9IjI4LjkiIGN4PSI3My4yIiBjbGFzcz0ic3QyIi8+JiN4YTs8L2c+JiN4YTs8L3N2Zz4=;" vertex="1" parent="1">
          <mxGeometry x="1060" y="623" width="100" height="100" as="geometry" />
        </mxCell>
        <mxCell id="87mjvE1WeWrNGsHYavME-44" value="" style="shape=image;verticalLabelPosition=bottom;labelBackgroundColor=default;verticalAlign=top;aspect=fixed;imageAspect=0;image=data:image/svg+xml,PHN2ZyB4bWxuczp4bGluaz0iaHR0cDovL3d3dy53My5vcmcvMTk5OS94bGluayIgeG1sbnM9Imh0dHA6Ly93d3cudzMub3JnLzIwMDAvc3ZnIiB4bWw6c3BhY2U9InByZXNlcnZlIiBzdHlsZT0iZW5hYmxlLWJhY2tncm91bmQ6bmV3IDAgMCAxMDAgMTAwOyIgdmlld0JveD0iMCAwIDEwMCAxMDAiIHk9IjBweCIgeD0iMHB4IiBpZD0iRGF0YWJhc2VfU2VydmVyXy1fQ09NUE9VTkQiIHZlcnNpb249IjEuMSI+JiN4YTs8c3R5bGUgdHlwZT0idGV4dC9jc3MiPiYjeGE7CS5zdDB7ZmlsbDojRkZDMzAwO30mI3hhOwkuc3Qxe2Rpc3BsYXk6bm9uZTt9JiN4YTsJLnN0MntkaXNwbGF5OmlubGluZTtmaWxsOiMxODFDMUY7fSYjeGE7PC9zdHlsZT4mI3hhOzxnIGlkPSJGSUxMXy1fQyI+JiN4YTsJPHBhdGggZD0iTTIwLDg3aDYwVjY0LjNIMjBWODd6IE03My4yLDc2LjRjMi4xLDAsMy44LDEuNywzLjgsMy44Uzc1LjMsODQsNzMuMiw4NHMtMy44LTEuNy0zLjgtMy44JiMxMDsmIzk7JiM5O1M3MS4xLDc2LjQsNzMuMiw3Ni40eiIgY2xhc3M9InN0MCIvPiYjeGE7CTxwYXRoIGQ9Ik0yMCw2MS4zTDIwLDYxLjNoNjBsMCwwVjM4LjdIMjBWNjEuM0wyMCw2MS4zeiBNNzMuMiw1MC43YzIuMSwwLDMuOCwxLjcsMy44LDMuOHMtMS43LDMuOC0zLjgsMy44JiMxMDsmIzk7JiM5O3MtMy44LTEuNy0zLjgtMy44UzcxLjEsNTAuNyw3My4yLDUwLjd6IiBjbGFzcz0ic3QwIi8+JiN4YTsJPHBhdGggZD0iTTIwLDEzdjIyLjdsMCwwaDYwbDAsMFYxM0gyMHogTTczLjIsMjUuMWMyLjEsMCwzLjgsMS43LDMuOCwzLjhzLTEuNywzLjgtMy44LDMuOHMtMy44LTEuNy0zLjgtMy44JiMxMDsmIzk7JiM5O1M3MS4xLDI1LjEsNzMuMiwyNS4xeiIgY2xhc3M9InN0MCIvPiYjeGE7PC9nPiYjeGE7PGcgY2xhc3M9InN0MSIgaWQ9IlNUUk9LRV8tX0JXIj4mI3hhOwk8Y2lyY2xlIHI9IjMuOCIgY3k9IjgwLjIiIGN4PSI3My4yIiBjbGFzcz0ic3QyIi8+JiN4YTsJPHBhdGggZD0iTTczLjIsNTguM2MyLjEsMCwzLjgtMS43LDMuOC0zLjhzLTEuNy0zLjgtMy44LTMuOHMtMy44LDEuNy0zLjgsMy44UzcxLjEsNTguMyw3My4yLDU4LjN6IiBjbGFzcz0ic3QyIi8+JiN4YTsJPHBhdGggZD0iTTgxLjUsMTBoLTYzTDE3LDExLjV2NzdsMS41LDEuNWg2M2wxLjUtMS41di03N0M4MywxMS41LDgxLjUsMTAsODEuNSwxMHogTTgwLDg3SDIwVjY0LjNoNjAmIzEwOyYjOTsmIzk7QzgwLDY0LjMsODAsODcsODAsODd6IE04MCwzOC43djIyLjdsMCwwSDIwbDAsMFYzOC43TDgwLDM4LjdMODAsMzguN3ogTTgwLDM1LjdMODAsMzUuN0gyMGwwLDBWMTNoNjBWMzUuN3oiIGNsYXNzPSJzdDIiLz4mI3hhOwk8Y2lyY2xlIHI9IjMuOCIgY3k9IjI4LjkiIGN4PSI3My4yIiBjbGFzcz0ic3QyIi8+JiN4YTs8L2c+JiN4YTs8L3N2Zz4=;" vertex="1" parent="1">
          <mxGeometry x="1130" y="623" width="100" height="100" as="geometry" />
        </mxCell>
        <mxCell id="87mjvE1WeWrNGsHYavME-45" value="" style="shape=image;verticalLabelPosition=bottom;labelBackgroundColor=default;verticalAlign=top;aspect=fixed;imageAspect=0;image=data:image/svg+xml,PHN2ZyB4bWxuczp4bGluaz0iaHR0cDovL3d3dy53My5vcmcvMTk5OS94bGluayIgeG1sbnM9Imh0dHA6Ly93d3cudzMub3JnLzIwMDAvc3ZnIiB4bWw6c3BhY2U9InByZXNlcnZlIiBzdHlsZT0iZW5hYmxlLWJhY2tncm91bmQ6bmV3IDAgMCAxMDAgMTAwOyIgdmlld0JveD0iMCAwIDEwMCAxMDAiIHk9IjBweCIgeD0iMHB4IiBpZD0iRGF0YWJhc2VfU2VydmVyXy1fQ09NUE9VTkQiIHZlcnNpb249IjEuMSI+JiN4YTs8c3R5bGUgdHlwZT0idGV4dC9jc3MiPiYjeGE7CS5zdDB7ZmlsbDojRkZDMzAwO30mI3hhOwkuc3Qxe2Rpc3BsYXk6bm9uZTt9JiN4YTsJLnN0MntkaXNwbGF5OmlubGluZTtmaWxsOiMxODFDMUY7fSYjeGE7PC9zdHlsZT4mI3hhOzxnIGlkPSJGSUxMXy1fQyI+JiN4YTsJPHBhdGggZD0iTTIwLDg3aDYwVjY0LjNIMjBWODd6IE03My4yLDc2LjRjMi4xLDAsMy44LDEuNywzLjgsMy44Uzc1LjMsODQsNzMuMiw4NHMtMy44LTEuNy0zLjgtMy44JiMxMDsmIzk7JiM5O1M3MS4xLDc2LjQsNzMuMiw3Ni40eiIgY2xhc3M9InN0MCIvPiYjeGE7CTxwYXRoIGQ9Ik0yMCw2MS4zTDIwLDYxLjNoNjBsMCwwVjM4LjdIMjBWNjEuM0wyMCw2MS4zeiBNNzMuMiw1MC43YzIuMSwwLDMuOCwxLjcsMy44LDMuOHMtMS43LDMuOC0zLjgsMy44JiMxMDsmIzk7JiM5O3MtMy44LTEuNy0zLjgtMy44UzcxLjEsNTAuNyw3My4yLDUwLjd6IiBjbGFzcz0ic3QwIi8+JiN4YTsJPHBhdGggZD0iTTIwLDEzdjIyLjdsMCwwaDYwbDAsMFYxM0gyMHogTTczLjIsMjUuMWMyLjEsMCwzLjgsMS43LDMuOCwzLjhzLTEuNywzLjgtMy44LDMuOHMtMy44LTEuNy0zLjgtMy44JiMxMDsmIzk7JiM5O1M3MS4xLDI1LjEsNzMuMiwyNS4xeiIgY2xhc3M9InN0MCIvPiYjeGE7PC9nPiYjeGE7PGcgY2xhc3M9InN0MSIgaWQ9IlNUUk9LRV8tX0JXIj4mI3hhOwk8Y2lyY2xlIHI9IjMuOCIgY3k9IjgwLjIiIGN4PSI3My4yIiBjbGFzcz0ic3QyIi8+JiN4YTsJPHBhdGggZD0iTTczLjIsNTguM2MyLjEsMCwzLjgtMS43LDMuOC0zLjhzLTEuNy0zLjgtMy44LTMuOHMtMy44LDEuNy0zLjgsMy44UzcxLjEsNTguMyw3My4yLDU4LjN6IiBjbGFzcz0ic3QyIi8+JiN4YTsJPHBhdGggZD0iTTgxLjUsMTBoLTYzTDE3LDExLjV2NzdsMS41LDEuNWg2M2wxLjUtMS41di03N0M4MywxMS41LDgxLjUsMTAsODEuNSwxMHogTTgwLDg3SDIwVjY0LjNoNjAmIzEwOyYjOTsmIzk7QzgwLDY0LjMsODAsODcsODAsODd6IE04MCwzOC43djIyLjdsMCwwSDIwbDAsMFYzOC43TDgwLDM4LjdMODAsMzguN3ogTTgwLDM1LjdMODAsMzUuN0gyMGwwLDBWMTNoNjBWMzUuN3oiIGNsYXNzPSJzdDIiLz4mI3hhOwk8Y2lyY2xlIHI9IjMuOCIgY3k9IjI4LjkiIGN4PSI3My4yIiBjbGFzcz0ic3QyIi8+JiN4YTs8L2c+JiN4YTs8L3N2Zz4=;" vertex="1" parent="1">
          <mxGeometry x="1201" y="623" width="100" height="100" as="geometry" />
        </mxCell>
        <mxCell id="87mjvE1WeWrNGsHYavME-48" value="&lt;h2&gt;&lt;font style=&quot;font-weight: normal;&quot; color=&quot;#ffffff&quot; data-font-src=&quot;https://fonts.googleapis.com/css?family=inter&quot;&gt;&amp;nbsp; &amp;nbsp; &amp;nbsp; &amp;nbsp;RDB (Real-time Database)&lt;/font&gt;&lt;/h2&gt;" style="html=1;whiteSpace=wrap;fillColor=#003CFF;strokeColor=none;rounded=1;glass=0;shadow=0;fontFamily=Inter;fontStyle=0;align=left;fontSource=https%3A%2F%2Ffonts.googleapis.com%2Fcss%3Ffamily%3DInter;" vertex="1" parent="1">
          <mxGeometry x="1190" y="832.85" width="318" height="70.75" as="geometry" />
        </mxCell>
        <mxCell id="87mjvE1WeWrNGsHYavME-49" value="&lt;h2&gt;&lt;font color=&quot;#101820&quot;&gt;&lt;span style=&quot;font-weight: 400;&quot;&gt;kdb+&lt;/span&gt;&lt;/font&gt;&lt;/h2&gt;" style="html=1;whiteSpace=wrap;fillColor=#FFC300;rounded=1;glass=0;shadow=0;fontFamily=Inter;fontStyle=0;strokeWidth=2;strokeColor=#FFC300;fontSource=https%3A%2F%2Ffonts.googleapis.com%2Fcss%3Ffamily%3DInter;" vertex="1" parent="1">
          <mxGeometry x="1470" y="843.22" width="85" height="50" as="geometry" />
        </mxCell>
        <mxCell id="87mjvE1WeWrNGsHYavME-50" value="" style="endArrow=classic;startArrow=classic;html=1;rounded=1;strokeColor=#4D4D4D;strokeWidth=4;verticalAlign=top;flowAnimation=0;exitX=1;exitY=0.5;exitDx=0;exitDy=0;" edge="1" parent="1" source="87mjvE1WeWrNGsHYavME-45">
          <mxGeometry width="50" height="50" relative="1" as="geometry">
            <mxPoint x="1873" y="383" as="sourcePoint" />
            <mxPoint x="1370" y="673" as="targetPoint" />
          </mxGeometry>
        </mxCell>
        <mxCell id="87mjvE1WeWrNGsHYavME-51" value="" style="shape=image;verticalLabelPosition=bottom;labelBackgroundColor=default;verticalAlign=top;aspect=fixed;imageAspect=0;image=data:image/svg+xml,PHN2ZyB4bWxuczp4bGluaz0iaHR0cDovL3d3dy53My5vcmcvMTk5OS94bGluayIgeG1sbnM9Imh0dHA6Ly93d3cudzMub3JnLzIwMDAvc3ZnIiB4bWw6c3BhY2U9InByZXNlcnZlIiBzdHlsZT0iZW5hYmxlLWJhY2tncm91bmQ6bmV3IDAgMCAxMDAgMTAwOyIgdmlld0JveD0iMCAwIDEwMCAxMDAiIHk9IjBweCIgeD0iMHB4IiBpZD0iRGF0YWJhc2VfU2VydmVyXy1fQ09NUE9VTkQiIHZlcnNpb249IjEuMSI+JiN4YTs8c3R5bGUgdHlwZT0idGV4dC9jc3MiPiYjeGE7CS5zdDB7ZmlsbDojRkZDMzAwO30mI3hhOwkuc3Qxe2Rpc3BsYXk6bm9uZTt9JiN4YTsJLnN0MntkaXNwbGF5OmlubGluZTtmaWxsOiMxODFDMUY7fSYjeGE7PC9zdHlsZT4mI3hhOzxnIGlkPSJGSUxMXy1fQyI+JiN4YTsJPHBhdGggZD0iTTIwLDg3aDYwVjY0LjNIMjBWODd6IE03My4yLDc2LjRjMi4xLDAsMy44LDEuNywzLjgsMy44Uzc1LjMsODQsNzMuMiw4NHMtMy44LTEuNy0zLjgtMy44JiMxMDsmIzk7JiM5O1M3MS4xLDc2LjQsNzMuMiw3Ni40eiIgY2xhc3M9InN0MCIvPiYjeGE7CTxwYXRoIGQ9Ik0yMCw2MS4zTDIwLDYxLjNoNjBsMCwwVjM4LjdIMjBWNjEuM0wyMCw2MS4zeiBNNzMuMiw1MC43YzIuMSwwLDMuOCwxLjcsMy44LDMuOHMtMS43LDMuOC0zLjgsMy44JiMxMDsmIzk7JiM5O3MtMy44LTEuNy0zLjgtMy44UzcxLjEsNTAuNyw3My4yLDUwLjd6IiBjbGFzcz0ic3QwIi8+JiN4YTsJPHBhdGggZD0iTTIwLDEzdjIyLjdsMCwwaDYwbDAsMFYxM0gyMHogTTczLjIsMjUuMWMyLjEsMCwzLjgsMS43LDMuOCwzLjhzLTEuNywzLjgtMy44LDMuOHMtMy44LTEuNy0zLjgtMy44JiMxMDsmIzk7JiM5O1M3MS4xLDI1LjEsNzMuMiwyNS4xeiIgY2xhc3M9InN0MCIvPiYjeGE7PC9nPiYjeGE7PGcgY2xhc3M9InN0MSIgaWQ9IlNUUk9LRV8tX0JXIj4mI3hhOwk8Y2lyY2xlIHI9IjMuOCIgY3k9IjgwLjIiIGN4PSI3My4yIiBjbGFzcz0ic3QyIi8+JiN4YTsJPHBhdGggZD0iTTczLjIsNTguM2MyLjEsMCwzLjgtMS43LDMuOC0zLjhzLTEuNy0zLjgtMy44LTMuOHMtMy44LDEuNy0zLjgsMy44UzcxLjEsNTguMyw3My4yLDU4LjN6IiBjbGFzcz0ic3QyIi8+JiN4YTsJPHBhdGggZD0iTTgxLjUsMTBoLTYzTDE3LDExLjV2NzdsMS41LDEuNWg2M2wxLjUtMS41di03N0M4MywxMS41LDgxLjUsMTAsODEuNSwxMHogTTgwLDg3SDIwVjY0LjNoNjAmIzEwOyYjOTsmIzk7QzgwLDY0LjMsODAsODcsODAsODd6IE04MCwzOC43djIyLjdsMCwwSDIwbDAsMFYzOC43TDgwLDM4LjdMODAsMzguN3ogTTgwLDM1LjdMODAsMzUuN0gyMGwwLDBWMTNoNjBWMzUuN3oiIGNsYXNzPSJzdDIiLz4mI3hhOwk8Y2lyY2xlIHI9IjMuOCIgY3k9IjI4LjkiIGN4PSI3My4yIiBjbGFzcz0ic3QyIi8+JiN4YTs8L2c+JiN4YTs8L3N2Zz4=;strokeWidth=0;" vertex="1" parent="1">
          <mxGeometry x="990" y="623" width="100" height="100" as="geometry" />
        </mxCell>
        <mxCell id="87mjvE1WeWrNGsHYavME-53" value="&lt;font data-font-src=&quot;https://fonts.googleapis.com/css?family=Inter&quot; style=&quot;font-size: 18px;&quot; face=&quot;Inter&quot;&gt;2. Add todays data to&amp;nbsp;&lt;/font&gt;&lt;div&gt;&lt;font data-font-src=&quot;https://fonts.googleapis.com/css?family=Inter&quot; style=&quot;font-size: 18px;&quot; face=&quot;Inter&quot;&gt;DB stored on disk&lt;/font&gt;&lt;/div&gt;" style="endArrow=none;startArrow=classic;html=1;rounded=1;strokeColor=#4D4D4D;strokeWidth=4;verticalAlign=top;flowAnimation=0;entryX=0.42;entryY=-0.016;entryDx=0;entryDy=0;entryPerimeter=0;endFill=0;align=right;" edge="1" parent="1" target="87mjvE1WeWrNGsHYavME-48">
          <mxGeometry width="50" height="50" relative="1" as="geometry">
            <mxPoint x="1040" y="703" as="sourcePoint" />
            <mxPoint x="1870" y="557" as="targetPoint" />
            <Array as="points">
              <mxPoint x="1040" y="763" />
              <mxPoint x="1324" y="763" />
            </Array>
          </mxGeometry>
        </mxCell>
        <mxCell id="87mjvE1WeWrNGsHYavME-55" value="&lt;font data-font-src=&quot;https://fonts.googleapis.com/css?family=Inter&quot; style=&quot;font-size: 18px;&quot; face=&quot;Inter&quot;&gt;4. Instruct HDB to load new data&lt;/font&gt;" style="endArrow=none;startArrow=classic;html=1;rounded=1;strokeColor=#4D4D4D;strokeWidth=4;verticalAlign=top;flowAnimation=0;entryX=0.42;entryY=-0.016;entryDx=0;entryDy=0;entryPerimeter=0;endFill=0;exitX=0.563;exitY=0.995;exitDx=0;exitDy=0;exitPerimeter=0;align=left;" edge="1" parent="1" source="fQq0N2yNLMsldZwKydO9-7">
          <mxGeometry width="50" height="50" relative="1" as="geometry">
            <mxPoint x="1630" y="723" as="sourcePoint" />
            <mxPoint x="1345.9999999999995" y="832" as="targetPoint" />
            <Array as="points">
              <mxPoint x="1560" y="763" />
              <mxPoint x="1345.9999999999995" y="763" />
            </Array>
          </mxGeometry>
        </mxCell>
        <mxCell id="87mjvE1WeWrNGsHYavME-58" value="&lt;font data-font-src=&quot;https://fonts.googleapis.com/css?family=Inter&quot; style=&quot;font-size: 18px;&quot; face=&quot;Inter&quot;&gt;3. Empty tables in RDB&lt;/font&gt;" style="text;html=1;align=center;verticalAlign=middle;resizable=0;points=[];autosize=1;strokeColor=none;fillColor=none;" vertex="1" parent="1">
          <mxGeometry x="1335" y="913" width="220" height="30" as="geometry" />
        </mxCell>
        <mxCell id="87mjvE1WeWrNGsHYavME-59" value="&lt;font style=&quot;font-size: 18px;&quot; data-font-src=&quot;https://fonts.googleapis.com/css?family=Inter&quot; face=&quot;Inter&quot;&gt;1. .u.end called by TP&lt;/font&gt;" style="endArrow=none;startArrow=classic;html=1;rounded=1;strokeColor=#4D4D4D;strokeWidth=4;verticalAlign=top;flowAnimation=0;exitX=0;exitY=0.5;exitDx=0;exitDy=0;endFill=0;" edge="1" parent="1" source="87mjvE1WeWrNGsHYavME-48">
          <mxGeometry width="50" height="50" relative="1" as="geometry">
            <mxPoint x="1041.5" y="743" as="sourcePoint" />
            <mxPoint x="880" y="868" as="targetPoint" />
          </mxGeometry>
        </mxCell>
      </root>
    </mxGraphModel>
  </diagram>
</mxfile>
